# Blender 3.4.1
# www.blender.org
mtllib advtrains_signals_ks_sign_zs3_smroffr.mtl
o Cube.002
v -0.475195 1.055075 -0.024528
v -0.500000 1.055075 -0.034802
v -0.500000 1.055075 -0.034802
v -0.475195 1.055075 -0.024528
v -0.535079 1.055075 0.000277
v -0.524805 1.055075 0.025082
v -0.524805 1.055075 0.025082
v -0.535079 1.055075 0.000277
v -0.475195 1.055075 0.025082
v -0.464921 1.055075 0.000277
v -0.464921 1.055075 0.000277
v -0.475195 1.055075 0.025082
v -0.524805 1.055075 -0.024528
v -0.524805 1.055075 -0.024528
v -0.500000 1.055075 0.035356
v -0.500000 1.055075 0.035356
v -0.475195 -0.499729 0.025082
v -0.464920 -0.499729 0.000277
v -0.175019 1.306899 -0.046144
v -0.175019 1.306899 -0.030481
v -0.500000 0.746135 -0.030481
v -0.500000 0.746135 -0.046144
v -0.824981 1.306899 -0.046144
v -0.824981 1.306899 -0.030481
v -0.500000 -0.499729 0.035356
v -0.475195 -0.499729 -0.024528
v -0.500000 -0.499729 -0.034802
v -0.524804 -0.499729 0.025082
v -0.524804 -0.499729 -0.024528
v -0.535079 -0.499729 0.000277
vn -0.0000 -0.0000 1.0000
vn -0.0000 1.0000 -0.0000
vn 0.9239 -0.0000 0.3827
vn 0.8652 -0.5014 -0.0000
vn -0.8652 -0.5014 -0.0000
vn 0.3827 -0.0000 0.9239
vn 0.3827 -0.0000 -0.9239
vn 0.9239 -0.0000 -0.3827
vn -0.3827 -0.0000 0.9239
vn -0.9239 -0.0000 -0.3827
vn -0.9239 -0.0000 0.3827
vn -0.3827 -0.0000 -0.9239
vn -0.0000 -0.0000 -1.0000
vt 0.372863 0.578719
vt 0.468502 0.577800
vt 0.372317 0.613951
vt 0.468502 0.612306
vt 0.371666 0.613734
vt 0.141239 1.987923
vt 0.372221 0.578991
vt 0.106546 1.987936
vt 0.409596 0.636706
vt 0.315877 0.640082
vt 0.292344 0.614764
vt 0.385196 0.612306
vt 0.292986 0.614492
vt 0.245318 1.987885
vt 0.316131 0.639438
vt 0.210625 1.987897
vt 0.409596 0.553400
vt 0.315346 0.553400
vt 0.349331 0.553400
vt 0.444102 0.553400
vt 0.349077 0.554044
vt 0.071853 1.987948
vt 0.315664 0.554020
vt 0.037160 1.987962
vt 0.444102 0.636706
vt 0.349861 0.640082
vt 0.349543 0.639462
vt 0.175932 1.987910
vt 0.385196 0.577799
vt 0.292889 0.579531
vt 0.293541 0.579748
vt 0.002468 1.987974
vt 0.280011 1.987871
vt 0.036793 0.000397
vt 0.071486 0.000384
vt 0.677908 0.520935
vt 0.657776 0.541067
vt -0.023438 0.996094
vt 0.657776 0.520935
vt 0.485125 0.020439
vt 0.677907 0.020439
vt 0.292344 0.020439
vt 0.492188 0.003906
vt 0.312476 0.541067
vt 0.292344 0.520935
vt 1.003906 0.996094
vt 0.312476 0.520935
vt 0.002100 0.000409
vt 0.279643 0.000307
vt 0.106179 0.000371
vt 0.140872 0.000358
vt 0.244951 0.000319
vt 0.175565 0.000345
vt 0.210258 0.000332
s 1
g Cube.002_Default_OBJ.002
usemtl Default_OBJ.002
f 1/1/1 2/3/1 3/5/1 4/7/1
f 5/10/1 6/11/1 7/13/1 8/15/1
f 9/18/1 10/19/1 11/21/1 12/23/1
f 2/3/1 13/26/1 14/27/1 3/5/1
f 6/11/1 15/30/1 16/31/1 7/13/1
f 10/19/1 1/1/1 4/7/1 11/21/1
f 13/25/2 5/9/2 6/12/2 15/29/2 9/17/2 10/20/2 1/2/2 2/4/2
f 12/24/3 17/34/3 18/35/3 11/22/3
f 13/26/1 5/10/1 8/15/1 14/27/1
f 19/36/4 20/39/4 21/40/4 22/41/4
f 23/44/2 24/47/2 20/39/2 19/37/2
f 21/40/1 20/39/1 24/47/1
f 22/42/5 21/40/5 24/47/5 23/45/5
f 15/30/1 9/18/1 12/23/1 16/31/1
f 16/32/6 25/48/6 17/34/6 12/24/6
f 4/8/7 26/50/7 27/51/7 3/6/7
f 11/22/8 18/35/8 26/50/8 4/8/8
f 7/14/9 28/52/9 25/49/9 16/33/9
f 14/28/10 29/53/10 30/54/10 8/16/10
f 8/16/11 30/54/11 28/52/11 7/14/11
f 3/6/12 27/51/12 29/53/12 14/28/12
g Cube.002_Anzeige.002
usemtl Anzeige.002
f 22/43/13 23/46/13 19/38/13
