# Blender 3.4.1
# www.blender.org
mtllib advtrains_signals_ks_zs_top_smroffr.mtl
o HsVsAnzOben_Cube.001
v -0.471419 -0.505448 0.054425
v -0.471419 -0.505448 -0.059611
v -0.528581 -0.505448 -0.059611
v -0.528581 -0.505448 -0.059611
v -0.528581 -0.301185 -0.059611
v -0.528581 -0.301185 -0.116774
v -0.528581 -0.174288 -0.059611
v -0.528581 -0.174288 -0.116774
v -0.471419 -0.505448 -0.116774
v -0.471419 -0.301185 -0.116774
v -0.471419 -0.301185 -0.059611
v -0.471419 -0.174288 -0.116774
v -0.471419 -0.174288 -0.059611
v -0.528581 -0.505448 -0.116774
v -0.471419 -0.505448 -0.059611
v -0.471419 -0.505448 0.111588
v -0.471419 -0.301185 0.111588
v -0.528581 -0.301185 0.111588
v -0.471419 -0.174288 0.111588
v -0.528581 -0.174288 0.111588
v -0.528581 -0.505448 0.054425
v -0.528581 -0.301185 0.054425
v -0.471419 -0.301185 0.054425
v -0.528581 -0.505448 0.111588
v -0.528581 -0.174288 0.054425
v -0.471419 -0.505448 0.054425
v -0.471419 -0.174288 0.054425
v -0.528581 -0.505448 0.054425
v -0.361749 -0.045773 -0.064371
v -0.361749 -0.070195 -0.161156
v -0.361749 -0.064457 -0.161156
v -0.500000 -0.045773 -0.064371
v -0.500000 -0.210259 -0.064371
v -0.361749 -0.210259 -0.064371
v -0.361749 -0.098130 -0.161156
v -0.361749 -0.210259 -0.161156
v -0.385152 -0.210259 -0.161156
v -0.385152 -0.045773 -0.161156
v -0.392605 -0.045773 -0.161156
v -0.392605 -0.064457 -0.161156
v -0.392605 -0.064457 -0.217615
v -0.500000 -0.064457 -0.217615
v -0.500000 -0.064457 -0.161156
v -0.385152 -0.064457 -0.161156
v -0.385152 -0.064457 -0.217615
v -0.361749 -0.045773 -0.161156
v -0.385152 -0.098130 -0.186450
v -0.385152 -0.210259 -0.186450
v -0.392605 -0.210259 -0.186450
v -0.392605 -0.070195 -0.217615
v -0.500000 -0.070195 -0.217615
v -0.385152 -0.070195 -0.217615
v -0.392605 -0.070195 -0.161156
v -0.392605 -0.080599 -0.217615
v -0.500000 -0.070195 -0.161156
v -0.385152 -0.070195 -0.161156
v -0.385152 -0.080599 -0.161156
v -0.385152 -0.080599 -0.217615
v -0.392605 -0.080599 -0.161156
v -0.392605 -0.098130 -0.186450
v -0.500000 -0.080599 -0.161156
v -0.361749 -0.080599 -0.161156
v -0.392605 -0.098130 -0.161156
v -0.385152 -0.098130 -0.161156
v -0.500000 -0.098130 -0.161156
v -0.638251 -0.098130 -0.161156
v -0.638251 -0.210259 -0.064371
v -0.638251 -0.045773 -0.064371
v -0.614848 -0.210259 -0.161156
v -0.638251 -0.210259 -0.161156
v -0.607395 -0.045773 -0.161156
v -0.607395 -0.064457 -0.217615
v -0.607395 -0.064457 -0.161156
v -0.614848 -0.064457 -0.217615
v -0.614848 -0.064457 -0.161156
v -0.614848 -0.045773 -0.161156
v -0.638251 -0.064457 -0.161156
v -0.638251 -0.045773 -0.161156
v -0.614848 -0.070195 -0.161156
v -0.638251 -0.070195 -0.161156
v -0.607395 -0.210259 -0.186450
v -0.614848 -0.210259 -0.186450
v -0.614848 -0.098130 -0.186450
v -0.607395 -0.070195 -0.217615
v -0.614848 -0.070195 -0.217615
v -0.607395 -0.080599 -0.217615
v -0.607395 -0.070195 -0.161156
v -0.614848 -0.080599 -0.217615
v -0.614848 -0.080599 -0.161156
v -0.607395 -0.098130 -0.186450
v -0.607395 -0.080599 -0.161156
v -0.638251 -0.080599 -0.161156
v -0.607395 -0.098130 -0.161156
v -0.614848 -0.098130 -0.161156
v -0.361749 -0.322387 -0.161156
v -0.361749 -0.374745 -0.064371
v -0.500000 -0.374745 -0.064371
v -0.392605 -0.374745 -0.161156
v -0.500000 -0.356061 -0.186450
v -0.392605 -0.356061 -0.186450
v -0.392605 -0.356061 -0.161156
v -0.500000 -0.356061 -0.161156
v -0.385152 -0.356061 -0.186450
v -0.385152 -0.356061 -0.161156
v -0.385152 -0.374745 -0.161156
v -0.361749 -0.356061 -0.161156
v -0.361749 -0.374745 -0.161156
v -0.385152 -0.350322 -0.161156
v -0.361749 -0.350322 -0.161156
v -0.385152 -0.322387 -0.186450
v -0.500000 -0.350322 -0.186450
v -0.392605 -0.350322 -0.186450
v -0.385152 -0.350322 -0.186450
v -0.392605 -0.339919 -0.186450
v -0.392605 -0.350322 -0.161156
v -0.500000 -0.350322 -0.161156
v -0.385152 -0.339919 -0.186450
v -0.385152 -0.339919 -0.161156
v -0.392605 -0.322387 -0.186450
v -0.392605 -0.339919 -0.161156
v -0.500000 -0.339919 -0.161156
v -0.361749 -0.339919 -0.161156
v -0.392605 -0.322387 -0.161156
v -0.385152 -0.322387 -0.161156
v -0.500000 -0.322387 -0.161156
v -0.392605 -0.210259 -0.161156
v -0.638251 -0.374745 -0.064371
v -0.638251 -0.350322 -0.161156
v -0.638251 -0.356061 -0.161156
v -0.638251 -0.322387 -0.161156
v -0.614848 -0.374745 -0.161156
v -0.607395 -0.374745 -0.161156
v -0.607395 -0.356061 -0.161156
v -0.607395 -0.356061 -0.186450
v -0.614848 -0.356061 -0.161156
v -0.614848 -0.356061 -0.186450
v -0.638251 -0.374745 -0.161156
v -0.614848 -0.350322 -0.161156
v -0.614848 -0.322387 -0.186450
v -0.607395 -0.350322 -0.186450
v -0.614848 -0.350322 -0.186450
v -0.607395 -0.350322 -0.161156
v -0.607395 -0.339919 -0.186450
v -0.614848 -0.339919 -0.161156
v -0.614848 -0.339919 -0.186450
v -0.607395 -0.339919 -0.161156
v -0.607395 -0.322387 -0.186450
v -0.638251 -0.339919 -0.161156
v -0.607395 -0.322387 -0.161156
v -0.614848 -0.322387 -0.161156
v -0.607395 -0.210259 -0.161156
v -0.500000 -0.045773 -0.161156
v -0.500000 -0.374745 -0.161156
v -0.500000 -0.210259 -0.161156
v -0.471419 -0.505448 0.111588
v -0.471419 -0.505448 -0.116774
v -0.528581 -0.505448 -0.116774
v -0.528581 -0.505448 0.111588
vn -0.0000 1.0000 -0.0000
vn -1.0000 -0.0000 -0.0000
vn 1.0000 -0.0000 -0.0000
vn -0.0000 -0.0000 -1.0000
vn -0.0000 -0.0000 1.0000
vn -0.0000 -1.0000 -0.0000
vn -0.0000 -0.8716 -0.4903
vt 1.000000 0.000000
vt 1.000000 1.000000
vt 0.000000 1.000000
vt 0.454504 0.000000
vt 1.000000 0.591862
vt 1.000000 0.226794
vt 0.454504 0.365068
vt 0.272979 0.795673
vt 0.363511 0.365068
vt 0.727022 0.226794
vt 0.454504 0.591862
vt 1.000000 0.000000
vt 0.090993 0.694026
vt 0.727022 0.000000
vt 0.363511 0.591862
vt 0.090993 0.591862
vt 0.000000 0.591862
vt 0.818014 0.591862
vt 0.000000 0.226795
vt 0.818014 0.226794
vt 0.090993 0.226795
vt 0.909007 0.226794
vt 0.181986 0.795673
vt 0.000000 0.000000
vt 0.000000 0.591862
vt 0.818014 0.000000
vt 0.909007 0.000000
vt 0.090993 0.000000
vt 0.000000 0.694026
vt 0.363511 0.000000
vt 0.727022 0.591862
vt 0.090993 0.591862
vt 0.909007 0.591862
vt 0.818014 0.591862
vt 0.363511 0.591862
vt 0.818014 0.226794
vt 0.363511 0.226794
vt 0.909007 0.226794
vt 0.727021 0.365068
vt 0.818014 0.000000
vt 0.363511 0.000000
vt 0.000000 1.000000
vt 0.727022 0.591862
vt 0.909007 0.000000
vt 0.090993 1.000000
vt 0.090993 0.956930
vt 0.636029 0.000000
vt 0.090993 0.591862
vt 0.272979 0.591862
vt 0.636029 0.365068
vt 0.181986 0.591862
vt 0.272518 0.226794
vt 0.909007 0.591862
vt 0.727022 0.000000
vt 0.636029 0.591862
vt 0.090993 0.897836
vt 0.181986 0.956930
vt 0.272518 0.591862
vt 0.272518 0.000000
vt 0.000000 0.897836
vt 0.000000 0.000000
vt 0.415110 0.773242
vt 0.656453 0.379785
vt 0.550165 0.515419
vt 0.522823 0.746062
vt 0.013671 0.352606
vt 0.013671 0.358992
vt 0.522823 0.752448
vt 0.502593 0.379785
vt 0.703995 0.515419
vt 0.502593 0.196728
vt 0.415110 0.590185
vt 0.656453 0.196728
vt 0.522823 0.714973
vt 0.013671 0.321517
vt 0.013671 0.196729
vt 0.522823 0.590185
vt 0.838951 0.013671
vt 0.039717 0.196729
vt 0.860532 0.840658
vt 0.488140 0.869950
vt 0.584493 0.407128
vt 0.039717 0.379786
vt 0.584498 0.407728
vt 0.048011 0.379786
vt 0.713615 0.930837
vt 0.048011 0.358992
vt 0.713615 0.868004
vt 0.692089 0.196218
vt 0.459990 0.800584
vt 0.833135 0.868004
vt 0.811609 0.196218
vt 0.259953 0.800584
vt 0.550165 0.860942
vt 0.833135 0.930837
vt 0.259953 0.863417
vt 0.167531 0.358992
vt 0.522823 0.800584
vt 0.705321 0.930837
vt 0.039717 0.358992
vt 0.838951 0.175935
vt 0.705321 0.868004
vt 0.683795 0.196217
vt 0.901784 0.175935
vt 0.522823 0.773242
vt 0.550165 0.407728
vt 0.013671 0.379786
vt 0.683795 0.138459
vt 0.867101 0.138460
vt 0.683795 0.013671
vt 0.867101 0.013671
vt 0.705321 0.840659
vt 0.888681 0.840658
vt 0.459990 0.869950
vt 0.459990 0.878244
vt 0.692089 0.013671
vt 0.203511 0.746224
vt 0.713615 0.840662
vt 0.916024 0.834272
vt 0.168828 0.902101
vt 0.259953 0.953592
vt 0.692089 0.189831
vt 0.379473 0.953592
vt 0.550165 0.951117
vt 0.811609 0.189831
vt 0.550165 0.854556
vt 0.459990 0.806971
vt 0.901784 0.169548
vt 0.683795 0.189831
vt 0.231660 0.902101
vt 0.259953 0.890759
vt 0.013671 0.718882
vt 0.168828 0.890523
vt 0.692089 0.178253
vt 0.379473 0.890759
vt 0.522823 0.806971
vt 0.550165 0.888285
vt 0.133191 0.718882
vt 0.838951 0.169548
vt 0.039717 0.352606
vt 0.838951 0.157970
vt 0.039717 0.341028
vt 0.901784 0.157970
vt 0.683795 0.178253
vt 0.231660 0.890524
vt 0.013671 0.707304
vt 0.203511 0.871013
vt 0.692089 0.138459
vt 0.133191 0.707304
vt 0.522823 0.734484
vt 0.013671 0.341028
vt 0.013671 0.687793
vt 0.231660 0.871013
vt 0.003906 1.011719
vt 0.838951 0.138460
vt 0.039717 0.321517
vt 0.133191 0.687793
vt 0.500000 1.011719
vt 0.280055 0.714975
vt 0.321391 0.321517
vt 0.387767 0.590186
vt 0.348734 0.196728
vt 0.387767 0.773241
vt 0.348734 0.379785
vt 0.857825 0.515419
vt 0.901784 0.203277
vt 0.295345 0.196729
vt 0.913317 0.569392
vt 0.488140 0.842607
vt 0.321391 0.196729
vt 0.280054 0.590186
vt 0.823492 0.407728
vt 0.287052 0.379785
vt 0.379473 0.800584
vt 0.669683 0.860942
vt 0.379473 0.863417
vt 0.287052 0.358992
vt 0.387767 0.800584
vt 0.677977 0.860942
vt 0.838951 0.365540
vt 0.387767 0.863417
vt 0.295346 0.358992
vt 0.901784 0.365540
vt 0.840658 0.407578
vt 0.295346 0.379785
vt 0.280055 0.752448
vt 0.321391 0.358992
vt 0.280055 0.773241
vt 0.857825 0.407728
vt 0.321391 0.379785
vt 0.901784 0.359154
vt 0.295346 0.352605
vt 0.280055 0.746063
vt 0.321391 0.352605
vt 0.459990 0.834313
vt 0.669684 0.678395
vt 0.711945 0.223560
vt 0.133191 0.908487
vt 0.802120 0.379437
vt 0.677978 0.678395
vt 0.873634 0.203277
vt 0.141485 0.908487
vt 0.885167 0.569392
vt 0.459990 0.842607
vt 0.677978 0.803184
vt 0.873634 0.328065
vt 0.746628 0.379437
vt 0.669685 0.951117
vt 0.669683 0.854556
vt 0.838951 0.359154
vt 0.677977 0.854556
vt 0.746628 0.367859
vt 0.669683 0.842978
vt 0.683795 0.379437
vt 0.669685 0.888285
vt 0.252711 0.718882
vt 0.838951 0.347576
vt 0.677978 0.842978
vt 0.901784 0.347576
vt 0.295346 0.341028
vt 0.711945 0.348349
vt 0.669684 0.803183
vt 0.683795 0.367859
vt 0.252711 0.707304
vt 0.280055 0.734486
vt 0.321391 0.341028
vt 0.252711 0.687793
vt 0.683795 0.348349
vt 0.996094 1.011719
vt 0.901784 0.328065
vt 0.295346 0.321517
vt 0.522822 0.465396
vt 0.013671 0.071940
vt 0.415110 0.407128
vt 0.656453 0.013671
vt 0.550165 0.542762
vt 0.502593 0.013671
vt 0.703995 0.542762
vt 0.584498 0.650454
vt 0.048011 0.013671
vt 0.459990 0.911973
vt 0.833135 0.986329
vt 0.833189 0.678440
vt 0.013671 0.963980
vt 0.013671 0.746225
vt 0.713615 0.986329
vt 0.713671 0.678398
vt 0.713615 0.958179
vt 0.048011 0.034465
vt 0.833135 0.958179
vt 0.013671 0.935830
vt 0.167532 0.034466
vt 0.488140 0.911973
vt 0.705321 0.986329
vt 0.705377 0.678395
vt 0.888681 0.678395
vt 0.705321 0.958179
vt 0.039717 0.034465
vt 0.860532 0.678395
vt 0.567332 0.650603
vt 0.039717 0.013671
vt 0.522822 0.427922
vt 0.013671 0.034465
vt 0.522822 0.407128
vt 0.550165 0.650454
vt 0.013672 0.013671
vt 0.860532 0.684782
vt 0.039717 0.040852
vt 0.522822 0.434309
vt 0.013671 0.040851
vt 0.705364 0.715870
vt 0.888681 0.715870
vt 0.979997 0.923496
vt 0.860477 0.868004
vt 0.833187 0.684826
vt 0.013671 0.752611
vt 0.459990 0.905586
vt 0.916024 0.678395
vt 0.860477 0.923496
vt 0.713669 0.684785
vt 0.888681 0.684782
vt 0.705374 0.684782
vt 0.916024 0.689973
vt 0.713665 0.696362
vt 0.944174 0.678395
vt 0.860477 0.951646
vt 0.013671 0.407128
vt 0.979997 0.951646
vt 0.488140 0.905586
vt 0.860477 0.896154
vt 0.133191 0.407128
vt 0.888681 0.696359
vt 0.705370 0.696359
vt 0.860532 0.696359
vt 0.039717 0.052429
vt 0.916024 0.709483
vt 0.713658 0.715873
vt 0.944174 0.689973
vt 0.013671 0.418706
vt 0.133191 0.418706
vt 0.522822 0.445886
vt 0.013671 0.052429
vt 0.013671 0.438217
vt 0.944174 0.709484
vt 0.003906 -0.011719
vt 0.860532 0.715870
vt 0.039717 0.071940
vt 0.133191 0.438217
vt 0.500000 -0.011719
vt 0.231660 0.746224
vt 0.944174 0.834272
vt 0.488140 0.878244
vt 0.003906 0.500000
vt 0.387767 0.407128
vt 0.348734 0.013671
vt 0.857825 0.542762
vt 0.280054 0.434309
vt 0.321390 0.040853
vt 0.280054 0.427922
vt 0.321390 0.034466
vt 0.280054 0.465397
vt 0.321390 0.071941
vt 0.823497 0.651053
vt 0.295345 0.013674
vt 0.823492 0.650454
vt 0.287051 0.013674
vt 0.133191 0.935830
vt 0.287052 0.034467
vt 0.133191 0.963980
vt 0.133191 0.746224
vt 0.141485 0.935830
vt 0.295345 0.034467
vt 0.913317 0.407128
vt 0.141485 0.963980
vt 0.141485 0.746224
vt 0.885167 0.407128
vt 0.280054 0.407129
vt 0.857825 0.650454
vt 0.321390 0.013674
vt 0.913317 0.413515
vt 0.295345 0.040853
vt 0.141485 0.783699
vt 0.885167 0.444603
vt 0.802120 0.223560
vt 0.979997 0.868004
vt 0.133191 0.752611
vt 0.885167 0.413515
vt 0.141485 0.752611
vt 0.773970 0.223560
vt 0.979997 0.896154
vt 0.252711 0.407129
vt 0.802120 0.235138
vt 0.133191 0.764189
vt 0.913317 0.425093
vt 0.295345 0.052430
vt 0.885167 0.425093
vt 0.141485 0.764189
vt 0.773970 0.235138
vt 0.252711 0.418706
vt 0.802120 0.254649
vt 0.133191 0.783699
vt 0.280054 0.445886
vt 0.321390 0.052430
vt 0.252711 0.438217
vt 0.773970 0.254649
vt 0.996094 -0.011719
vt 0.913317 0.444603
vt 0.295345 0.071941
vt 0.683795 0.223560
vt 0.773970 0.379437
vt 0.488140 0.834313
vt 0.996094 0.500000
vt 0.703995 0.407728
vt 0.167531 0.379786
vt 0.703995 0.650454
vt 0.167533 0.013673
vt 0.500000 0.500000
s 1
g HsVsAnzOben_Cube.001_Mast.011
usemtl Mast.011
f 1/1/1 2/2/1 3/3/1
f 4/4/2 5/7/2 6/9/2
f 5/7/2 7/11/2 8/15/2
f 9/17/3 10/19/3 11/21/3
f 10/19/3 12/24/3 13/28/3
f 14/31/4 6/10/4 10/20/4
f 6/10/4 8/14/4 12/26/4
f 15/33/5 11/22/5 5/6/5
f 11/22/5 13/27/5 7/12/5
f 16/34/5 17/36/5 18/38/5
f 17/36/5 19/40/5 20/44/5
f 21/46/4 22/48/4 23/51/4
f 24/54/2 18/39/2 22/50/2
f 18/39/2 20/43/2 25/55/2
f 26/58/3 23/52/3 17/37/3
f 23/52/3 27/59/3 19/41/3
f 25/55/2 7/11/2 5/7/2
f 23/51/6 22/49/6 5/8/6
f 23/52/3 11/21/3 13/28/3
f 27/60/1 13/29/1 7/13/1
f 27/60/1 25/56/1 20/45/1
f 13/29/1 12/25/1 8/16/1
f 28/61/1 1/1/1 3/3/1
f 14/30/2 4/4/2 6/9/2
f 6/9/2 5/7/2 8/15/2
f 15/32/3 9/17/3 11/21/3
f 11/21/3 10/19/3 13/28/3
f 9/18/4 14/31/4 10/20/4
f 10/20/4 6/10/4 12/26/4
f 4/5/5 15/33/5 5/6/5
f 5/6/5 11/22/5 7/12/5
f 24/53/5 16/34/5 18/38/5
f 18/38/5 17/36/5 20/44/5
f 26/57/4 21/46/4 23/51/4
f 21/47/2 24/54/2 22/50/2
f 22/50/2 18/39/2 25/55/2
f 16/35/3 26/58/3 17/37/3
f 17/37/3 23/52/3 19/41/3
f 22/50/2 25/55/2 5/7/2
f 11/23/6 23/51/6 5/8/6
f 27/59/3 23/52/3 13/28/3
f 25/56/1 27/60/1 7/13/1
f 19/42/1 27/60/1 20/45/1
f 7/13/1 13/29/1 8/16/1
g HsVsAnzOben_Cube.001_Schirm.011
usemtl Schirm.011
f 29/62/3 30/65/3 31/68/3
f 32/69/5 33/71/5 34/73/5
f 35/75/4 36/76/4 37/79/4
f 29/64/1 38/82/1 39/84/1
f 40/86/1 41/88/1 42/91/1
f 39/85/4 40/87/4 43/97/4
f 44/99/1 45/102/1 41/88/1
f 38/83/4 44/100/4 40/87/4
f 46/107/4 31/67/4 44/100/4
f 44/100/4 31/67/4 30/66/4
f 47/108/4 48/110/4 49/116/4
f 41/89/4 50/122/4 51/125/4
f 41/89/4 45/103/4 52/129/4
f 53/130/2 50/120/2 54/133/2
f 55/135/6 51/123/6 50/121/6
f 56/139/3 52/128/3 45/104/3
f 37/78/3 48/111/3 47/109/3
f 57/141/3 58/143/3 52/128/3
f 59/145/2 54/133/2 60/147/2
f 52/129/4 58/144/4 54/134/4
f 53/132/4 59/146/4 61/149/4
f 56/140/4 30/66/4 62/151/4
f 63/153/2 60/147/2 49/117/2
f 57/141/3 64/155/3 47/109/3
f 58/144/7 47/108/7 60/148/7
f 59/146/4 63/152/4 65/157/4
f 62/151/4 35/75/4 64/156/4
f 66/159/2 67/161/2 68/163/2
f 67/162/5 33/71/5 32/69/5
f 69/167/4 70/170/4 66/160/4
f 71/172/1 68/165/1 32/70/1
f 42/93/1 72/174/1 73/176/1
f 43/97/4 73/177/4 71/173/4
f 72/174/1 74/178/1 75/181/1
f 73/177/4 75/182/4 76/185/4
f 75/182/4 77/187/4 78/190/4
f 75/182/4 79/192/4 80/194/4
f 81/196/4 82/200/4 83/205/4
f 51/126/4 84/209/4 72/175/4
f 72/175/4 84/209/4 85/211/4
f 51/127/3 42/90/3 43/98/3
f 86/212/3 84/207/3 87/214/3
f 84/208/6 51/124/6 55/137/6
f 74/180/2 85/210/2 79/191/2
f 83/206/2 82/201/2 69/166/2
f 85/210/2 88/217/2 89/219/2
f 90/221/3 86/212/3 91/223/3
f 86/213/4 88/218/4 85/211/4
f 61/149/4 91/224/4 87/216/4
f 79/192/4 89/220/4 92/226/4
f 81/197/3 90/221/3 93/228/3
f 89/219/2 88/217/2 83/206/2
f 90/222/7 83/205/7 88/218/7
f 65/157/4 93/227/4 91/224/4
f 94/231/4 66/160/4 92/226/4
f 95/232/3 34/72/3 96/234/3
f 34/73/5 33/71/5 97/237/5
f 37/79/4 36/76/4 95/233/4
f 98/239/6 96/236/6 97/238/6
f 99/242/6 100/246/6 101/248/6
f 102/252/4 101/249/4 98/240/4
f 100/246/6 103/254/6 104/257/6
f 101/249/4 104/258/4 105/261/4
f 104/258/4 106/263/4 107/266/4
f 108/268/4 109/270/4 106/263/4
f 49/118/4 48/112/4 110/271/4
f 111/275/4 112/280/4 100/247/4
f 100/247/4 112/280/4 113/282/4
f 114/283/2 112/278/2 115/285/2
f 112/279/1 111/273/1 116/288/1
f 103/256/3 113/281/3 108/267/3
f 110/272/3 48/113/3 37/80/3
f 113/281/3 117/292/3 118/294/3
f 119/296/2 114/283/2 120/298/2
f 114/284/4 117/293/4 113/282/4
f 121/300/4 120/299/4 115/287/4
f 118/295/4 122/302/4 109/270/4
f 49/119/2 119/296/2 123/304/2
f 117/292/3 110/272/3 124/306/3
f 119/297/4 110/271/4 117/293/4
f 125/308/4 123/303/4 120/299/4
f 124/307/4 95/233/4 122/302/4
f 126/312/6 49/115/6 48/114/6
f 127/314/2 128/317/2 129/319/2
f 97/237/5 33/71/5 67/162/5
f 130/322/4 70/170/4 69/167/4
f 127/316/6 131/323/6 132/325/6
f 133/327/6 134/329/6 99/244/6
f 132/326/4 133/328/4 102/252/4
f 135/331/6 136/334/6 134/329/6
f 131/324/4 135/332/4 133/328/4
f 137/339/4 129/320/4 135/332/4
f 129/320/4 128/318/4 138/341/4
f 139/342/4 82/202/4 81/198/4
f 134/330/4 140/346/4 111/276/4
f 134/330/4 136/335/4 141/348/4
f 102/253/3 99/241/3 111/277/3
f 142/349/3 140/344/3 143/352/3
f 116/290/1 111/274/1 140/345/1
f 138/340/2 141/347/2 136/336/2
f 69/168/2 82/203/2 139/343/2
f 144/354/2 145/356/2 141/347/2
f 146/358/3 143/352/3 147/360/3
f 141/348/4 145/357/4 143/353/4
f 142/351/4 146/359/4 121/300/4
f 128/318/4 148/363/4 144/355/4
f 149/365/3 147/360/3 81/199/3
f 150/367/2 139/343/2 145/356/2
f 145/357/4 139/342/4 147/361/4
f 146/359/4 149/364/4 125/308/4
f 148/363/4 130/322/4 150/368/4
f 82/204/6 81/195/6 151/371/6
f 31/68/3 46/105/3 29/62/3
f 29/62/3 35/74/3 62/150/3
f 36/77/3 35/74/3 34/72/3
f 62/150/3 30/65/3 29/62/3
f 34/72/3 35/74/3 29/62/3
f 29/63/5 32/69/5 34/73/5
f 64/156/4 35/75/4 37/79/4
f 39/84/1 152/373/1 32/70/1
f 32/70/1 29/64/1 39/84/1
f 46/106/1 38/82/1 29/64/1
f 43/95/1 40/86/1 42/91/1
f 152/374/4 39/85/4 43/97/4
f 40/86/1 44/99/1 41/88/1
f 39/85/4 38/83/4 40/87/4
f 38/83/4 46/107/4 44/100/4
f 56/140/4 44/100/4 30/66/4
f 60/148/4 47/108/4 49/116/4
f 42/92/4 41/89/4 51/125/4
f 50/122/4 41/89/4 52/129/4
f 59/145/2 53/130/2 54/133/2
f 53/131/6 55/135/6 50/121/6
f 44/101/3 56/139/3 45/104/3
f 64/155/3 37/78/3 47/109/3
f 56/139/3 57/141/3 52/128/3
f 63/153/2 59/145/2 60/147/2
f 50/122/4 52/129/4 54/134/4
f 55/138/4 53/132/4 61/149/4
f 57/142/4 56/140/4 62/151/4
f 126/310/2 63/153/2 49/117/2
f 58/143/3 57/141/3 47/109/3
f 54/134/7 58/144/7 60/148/7
f 61/149/4 59/146/4 65/157/4
f 57/142/4 62/151/4 64/156/4
f 68/163/2 78/188/2 77/186/2
f 77/186/2 80/193/2 68/163/2
f 92/225/2 66/159/2 68/163/2
f 70/171/2 67/161/2 66/159/2
f 68/163/2 80/193/2 92/225/2
f 68/164/5 67/162/5 32/69/5
f 94/231/4 69/167/4 66/160/4
f 32/70/1 152/373/1 71/172/1
f 71/172/1 76/184/1 68/165/1
f 78/189/1 68/165/1 76/184/1
f 43/96/1 42/93/1 73/176/1
f 152/374/4 43/97/4 71/173/4
f 73/176/1 72/174/1 75/181/1
f 71/173/4 73/177/4 76/185/4
f 76/185/4 75/182/4 78/190/4
f 77/187/4 75/182/4 80/194/4
f 90/222/4 81/196/4 83/205/4
f 42/94/4 51/126/4 72/175/4
f 74/179/4 72/175/4 85/211/4
f 55/136/3 51/127/3 43/98/3
f 91/223/3 86/212/3 87/214/3
f 87/215/6 84/208/6 55/137/6
f 75/183/2 74/180/2 79/191/2
f 94/230/2 83/206/2 69/166/2
f 79/191/2 85/210/2 89/219/2
f 93/228/3 90/221/3 91/223/3
f 84/209/4 86/213/4 85/211/4
f 55/138/4 61/149/4 87/216/4
f 80/194/4 79/192/4 92/226/4
f 151/369/3 81/197/3 93/228/3
f 94/230/2 89/219/2 83/206/2
f 86/213/7 90/222/7 88/218/7
f 61/149/4 65/157/4 91/224/4
f 89/220/4 94/231/4 92/226/4
f 96/234/3 107/264/3 106/262/3
f 106/262/3 109/269/3 96/234/3
f 122/301/3 95/232/3 96/234/3
f 36/77/3 34/72/3 95/232/3
f 96/234/3 109/269/3 122/301/3
f 96/235/5 34/73/5 97/237/5
f 124/307/4 37/79/4 95/233/4
f 97/238/6 153/375/6 98/239/6
f 98/239/6 105/260/6 96/236/6
f 107/265/6 96/236/6 105/260/6
f 102/250/6 99/242/6 101/248/6
f 153/376/4 102/252/4 98/240/4
f 101/248/6 100/246/6 104/257/6
f 98/240/4 101/249/4 105/261/4
f 105/261/4 104/258/4 107/266/4
f 104/258/4 108/268/4 106/263/4
f 119/297/4 49/118/4 110/271/4
f 99/243/4 111/275/4 100/247/4
f 103/255/4 100/247/4 113/282/4
f 120/298/2 114/283/2 115/285/2
f 115/286/1 112/279/1 116/288/1
f 104/259/3 103/256/3 108/267/3
f 124/306/3 110/272/3 37/80/3
f 108/267/3 113/281/3 118/294/3
f 123/304/2 119/296/2 120/298/2
f 112/280/4 114/284/4 113/282/4
f 116/291/4 121/300/4 115/287/4
f 108/268/4 118/295/4 109/270/4
f 126/311/2 49/119/2 123/304/2
f 118/294/3 117/292/3 124/306/3
f 114/284/4 119/297/4 117/293/4
f 121/300/4 125/308/4 120/299/4
f 118/295/4 124/307/4 122/302/4
f 37/81/6 126/312/6 48/114/6
f 129/319/2 137/337/2 127/314/2
f 127/314/2 130/321/2 148/362/2
f 70/171/2 130/321/2 67/161/2
f 148/362/2 128/317/2 127/314/2
f 67/161/2 130/321/2 127/314/2
f 127/315/5 97/237/5 67/162/5
f 150/368/4 130/322/4 69/167/4
f 132/325/6 153/375/6 97/238/6
f 97/238/6 127/316/6 132/325/6
f 137/338/6 131/323/6 127/316/6
f 102/251/6 133/327/6 99/244/6
f 153/376/4 132/326/4 102/252/4
f 133/327/6 135/331/6 134/329/6
f 132/326/4 131/324/4 133/328/4
f 131/324/4 137/339/4 135/332/4
f 135/332/4 129/320/4 138/341/4
f 147/361/4 139/342/4 81/198/4
f 99/245/4 134/330/4 111/276/4
f 140/346/4 134/330/4 141/348/4
f 116/289/3 102/253/3 111/277/3
f 146/358/3 142/349/3 143/352/3
f 142/350/1 116/290/1 140/345/1
f 135/333/2 138/340/2 136/336/2
f 150/367/2 69/168/2 139/343/2
f 138/340/2 144/354/2 141/347/2
f 149/365/3 146/358/3 147/360/3
f 140/346/4 141/348/4 143/353/4
f 116/291/4 142/351/4 121/300/4
f 138/341/4 128/318/4 144/355/4
f 151/370/3 149/365/3 81/199/3
f 144/354/2 150/367/2 145/356/2
f 143/353/4 145/357/4 147/361/4
f 121/300/4 146/359/4 125/308/4
f 144/355/4 148/363/4 150/368/4
f 69/169/6 82/204/6 151/371/6
g HsVsAnzOben_Cube.001_Anzeige.011
usemtl Anzeige.011
f 63/154/4 126/313/4 154/377/4
f 154/377/4 151/372/4 93/229/4
f 154/377/4 126/313/4 123/305/4
f 149/366/4 151/372/4 154/377/4
f 65/158/4 63/154/4 154/377/4
f 65/158/4 154/377/4 93/229/4
f 125/309/4 154/377/4 123/305/4
f 125/309/4 149/366/4 154/377/4
l 1 155
l 156 2
l 3 157
l 155 158
l 157 156
l 158 28
