# Blender 3.4.1
# www.blender.org
mtllib advtrains_signals_ks_sign_ne4_smroffr.mtl
o Cube.001
v -0.400000 1.200000 -0.024543
v -0.400000 1.200000 -0.044543
v -0.600000 1.200000 -0.044543
v -0.600000 1.200000 -0.024543
v -0.400000 0.700000 -0.044543
v -0.400000 0.700000 -0.024543
v -0.600000 0.700000 -0.044543
v -0.600000 0.700000 -0.024543
v -0.475195 1.055075 -0.024528
v -0.500000 1.055075 -0.034802
v -0.500000 1.055075 -0.034802
v -0.475195 1.055075 -0.024528
v -0.535079 1.055075 0.000277
v -0.524805 1.055075 0.025082
v -0.524805 1.055075 0.025082
v -0.535079 1.055075 0.000277
v -0.475195 1.055075 0.025082
v -0.464921 1.055075 0.000277
v -0.464921 1.055075 0.000277
v -0.475195 1.055075 0.025082
v -0.524805 1.055075 -0.024528
v -0.524805 1.055075 -0.024528
v -0.500000 1.055075 0.035356
v -0.500000 1.055075 0.035356
v -0.475195 -0.499729 0.025082
v -0.464920 -0.499729 0.000277
v -0.500000 -0.499729 0.035356
v -0.475195 -0.499729 -0.024528
v -0.500000 -0.499729 -0.034802
v -0.524804 -0.499729 0.025082
v -0.524804 -0.499729 -0.024528
v -0.535079 -0.499729 0.000277
vn 0.9239 0.3827 -0.0000
vn -0.0000 0.3826 -0.9239
vn -0.9239 0.3827 -0.0001
vn -0.0000 0.3827 0.9239
vn -0.0000 -0.0000 1.0000
vn 1.0000 -0.0000 -0.0000
vn -1.0000 -0.0000 -0.0000
vn 0.7071 -0.7071 -0.0000
vn -0.7071 -0.7071 -0.0000
vn -0.9659 -0.0000 0.2588
vn 0.9659 -0.0000 0.2588
vn -0.7814 -0.5678 0.2588
vn 0.9659 -0.0000 -0.2588
vn -0.9659 -0.0000 -0.2588
vn -0.0000 1.0000 -0.0000
vn 0.9239 -0.0000 0.3827
vn 0.3827 -0.0000 0.9239
vn 0.3827 -0.0000 -0.9239
vn 0.9239 -0.0000 -0.3827
vn -0.3827 -0.0000 0.9239
vn -0.9239 -0.0000 -0.3827
vn -0.9239 -0.0000 0.3827
vn -0.3827 -0.0000 -0.9239
vn -0.0000 -0.0000 -1.0000
vt 0.583333 0.750000
vt 0.583333 0.500000
vt 0.000000 1.000000
vt 0.583333 0.250000
vt 0.250000 1.000000
vt 0.583333 1.000000
vt 0.583333 0.000000
vt 0.375000 0.500000
vt 0.000000 0.375000
vt 0.375000 0.750000
vt 0.375000 0.250000
vt 0.125000 0.500000
vt 0.250000 0.375000
vt 0.375000 1.000000
vt 0.375000 0.000000
vt 0.125000 0.750000
vt 0.372863 0.578719
vt 0.468502 0.577800
vt 0.372317 0.613951
vt 0.468502 0.612306
vt 0.371666 0.613734
vt 0.141239 1.987923
vt 0.372221 0.578991
vt 0.106546 1.987936
vt 0.409596 0.636706
vt 0.315877 0.640082
vt 0.292344 0.614764
vt 0.385196 0.612306
vt 0.292986 0.614492
vt 0.245318 1.987885
vt 0.316131 0.639438
vt 0.210625 1.987897
vt 0.409596 0.553400
vt 0.315346 0.553400
vt 0.349331 0.553400
vt 0.444102 0.553400
vt 0.349077 0.554044
vt 0.071853 1.987948
vt 0.315664 0.554020
vt 0.037160 1.987962
vt 0.444102 0.636706
vt 0.349861 0.640082
vt 0.349543 0.639462
vt 0.175932 1.987910
vt 0.385196 0.577799
vt 0.292889 0.579531
vt 0.293541 0.579748
vt 0.002468 1.987974
vt 0.280011 1.987871
vt 0.036793 0.000397
vt 0.071486 0.000384
vt 0.002100 0.000409
vt 0.279643 0.000307
vt 0.106179 0.000371
vt 0.140872 0.000358
vt 0.244951 0.000319
vt 0.175565 0.000345
vt 0.210258 0.000332
s 0
g Cube.001_Default_OBJ.001
usemtl Default_OBJ.001
f 1/1/1 2/2/2 3/4/3 4/6/4
f 1/1/5 4/6/5 8/14/5 6/10/5
f 5/8/6 2/2/6 1/1/6 6/10/6
f 8/15/7 4/7/7 3/4/7 7/11/7
f 7/12/8 5/8/9 6/10/9 8/16/8
s 1
f 9/17/10 10/19/5 11/21/11 12/23/12
f 13/26/6 14/27/13 15/29/14 16/31/6
f 17/34/13 18/35/7 19/37/7 20/39/14
f 10/19/5 21/42/10 22/43/11 11/21/11
f 14/27/13 23/46/5 24/47/14 15/29/14
f 18/35/7 9/17/10 12/23/12 19/37/7
f 21/41/15 13/25/15 14/28/15 23/45/15 17/33/15 18/36/15 9/18/15 10/20/15
f 20/40/16 25/50/16 26/51/16 19/38/16
f 21/42/10 13/26/6 16/31/6 22/43/11
f 23/46/5 17/34/13 20/39/14 24/47/14
f 24/48/17 27/52/17 25/50/17 20/40/17
f 12/24/18 28/54/18 29/55/18 11/22/18
f 19/38/19 26/51/19 28/54/19 12/24/19
f 15/30/20 30/56/20 27/53/20 24/49/20
f 22/44/21 31/57/21 32/58/21 16/32/21
f 16/32/22 32/58/22 30/56/22 15/30/22
f 11/22/23 29/55/23 31/57/23 22/44/23
s 0
g Cube.001_Anzeige.001
usemtl Anzeige.001
f 7/13/24 3/5/24 2/3/24 5/9/24
