# Blender 3.4.1
# www.blender.org
mtllib advtrains_signals_ks_sign_smroffr.mtl
o Cube
v -0.524805 1.055075 0.025082
v -0.535079 1.055075 0.000277
v -0.500000 1.055075 0.035356
v -0.524805 1.055075 -0.024528
v -0.475195 1.055075 0.025082
v -0.500000 1.055075 -0.034802
v -0.464921 1.055075 0.000277
v -0.475195 1.055075 -0.024528
v -0.475195 1.055075 -0.024528
v -0.464921 1.055075 0.000277
v -0.500000 1.055075 -0.034802
v -0.475195 1.055075 0.025082
v -0.535079 1.055075 0.000277
v -0.500000 1.055075 0.035356
v -0.524805 1.055075 -0.024528
v -0.524805 1.055075 0.025082
v -0.634334 0.860365 -0.046144
v -0.365666 0.860365 -0.046144
v -0.634334 1.249784 -0.046144
v -0.365666 1.249784 -0.046144
v -0.634334 0.860365 -0.030481
v -0.634334 1.249784 -0.030481
v -0.365666 1.249784 -0.030481
v -0.365666 0.860365 -0.030481
v -0.535079 -0.499729 0.000277
v -0.524804 -0.499729 0.025082
v -0.500000 -0.499729 0.035356
v -0.475195 -0.499729 0.025082
v -0.464920 -0.499729 0.000277
v -0.475195 -0.499729 -0.024528
v -0.500000 -0.499729 -0.034802
v -0.524804 -0.499729 -0.024528
vn -0.0000 -0.0000 1.0000
vn -0.0000 1.0000 -0.0000
vn 0.9239 -0.0000 0.3827
vn 1.0000 -0.0000 -0.0000
vn -0.0000 -1.0000 -0.0000
vn -1.0000 -0.0000 -0.0000
vn 0.3827 -0.0000 0.9239
vn 0.3827 -0.0000 -0.9239
vn 0.9239 -0.0000 -0.3827
vn -0.3827 -0.0000 0.9239
vn -0.9239 -0.0000 -0.3827
vn -0.9239 -0.0000 0.3827
vn -0.3827 -0.0000 -0.9239
vn -0.0000 -0.0000 -1.0000
vt 0.292986 0.614492
vt 0.245318 1.987885
vt 0.409596 0.636706
vt 0.315877 0.640082
vt 0.293541 0.579748
vt 0.002468 1.987974
vt 0.280011 1.987871
vt 0.444102 0.636706
vt 0.349861 0.640082
vt 0.315664 0.554020
vt 0.037160 1.987962
vt 0.372317 0.613951
vt 0.468502 0.612306
vt 0.349077 0.554044
vt 0.071853 1.987948
vt 0.372863 0.578719
vt 0.468502 0.577800
vt 0.372221 0.578991
vt 0.106546 1.987936
vt 0.349331 0.553400
vt 0.444102 0.553400
vt 0.371666 0.613734
vt 0.141239 1.987923
vt 0.409596 0.553400
vt 0.315346 0.553400
vt 0.316131 0.639438
vt 0.210625 1.987897
vt 0.385196 0.577799
vt 0.292889 0.579531
vt 0.349543 0.639462
vt 0.175932 1.987910
vt 0.292344 0.614764
vt 0.385196 0.612306
vt 0.312475 0.000307
vt 0.292344 0.020439
vt 0.832979 0.004636
vt 0.677907 0.020439
vt 0.657776 0.000307
vt 0.148195 0.004637
vt 0.312476 0.541067
vt 0.292344 0.520935
vt 0.832979 0.997197
vt 0.677908 0.520935
vt 0.657776 0.541067
vt 0.148195 0.997197
vt 0.312475 0.020439
vt 0.312476 0.520935
vt 0.657776 0.520935
vt 0.657776 0.020439
vt 0.210258 0.000332
vt 0.244951 0.000319
vt 0.002100 0.000409
vt 0.279643 0.000307
vt 0.036793 0.000397
vt 0.071486 0.000384
vt 0.106179 0.000371
vt 0.140872 0.000358
vt 0.175565 0.000345
s 0
f 8/16/1 6/12/1 11/22/1 9/18/1
f 2/4/1 16/32/1 1/1/1 13/26/1
f 12/25/1 10/20/1 7/14/1 5/10/1
f 6/12/1 4/9/1 15/30/1 11/22/1
f 16/32/1 14/29/1 3/5/1 1/1/1
f 10/20/1 8/16/1 9/18/1 7/14/1
f 4/8/2 2/3/2 16/33/2 14/28/2 12/24/2 10/21/2 8/17/2 6/13/2
f 5/11/3 28/54/3 29/55/3 7/15/3
f 4/9/1 2/4/1 13/26/1 15/30/1
f 20/43/4 23/48/4 24/49/4 18/37/4
f 19/40/2 22/47/2 23/48/2 20/44/2
f 21/46/1 24/49/1 23/48/1 22/47/1
f 18/38/5 24/49/5 21/46/5 17/34/5
f 17/35/6 21/46/6 22/47/6 19/41/6
f 14/29/1 12/25/1 5/10/1 3/5/1
f 3/6/7 27/52/7 28/54/7 5/11/7
f 9/19/8 30/56/8 31/57/8 11/23/8
f 7/15/9 29/55/9 30/56/9 9/19/9
f 1/2/10 26/51/10 27/53/10 3/7/10
f 15/31/11 32/58/11 25/50/11 13/27/11
f 13/27/12 25/50/12 26/51/12 1/2/12
f 11/23/13 31/57/13 32/58/13 15/31/13
f 17/36/14 19/42/14 20/45/14 18/39/14
